<svg width="24" height="25" viewBox="0 0 24 25" fill="none" xmlns="http://www.w3.org/2000/svg">
<path fill-rule="evenodd" clip-rule="evenodd" d="M0 12.3326C0 5.70516 5.37258 0.332581 12 0.332581C18.6274 0.332581 24 5.70516 24 12.3326C24 18.96 18.6274 24.3326 12 24.3326C5.37258 24.3326 0 18.96 0 12.3326ZM13.4632 9.51009C13.7979 9.17538 13.7979 8.63264 13.4632 8.29792C13.1285 7.96321 12.5858 7.96321 12.2511 8.29792L8.82249 11.7265C8.48778 12.0612 8.48778 12.604 8.82249 12.9387L12.2511 16.3672C12.5858 16.702 13.1285 16.702 13.4632 16.3672C13.7979 16.0325 13.7979 15.4898 13.4632 15.1551L10.6407 12.3326L13.4632 9.51009Z" fill="#919399"/>
</svg>
