<svg xmlns="http://www.w3.org/2000/svg"><path fill-rule="evenodd" clip-rule="evenodd" d="M18.439 16.692h2.854V7.59H18.44v9.102zM31.488 16.693l-2.025-3.082a3.09 3.09 0 001.847-1.884h-8.793v4.965h2.849v-2.896h1.364l1.496 2.897h3.262zM22.109 7.59c.383 2.118 2.21 3.724 4.409 3.724h4.909c.04-.2.06-.408.06-.62 0-1.714-1.368-3.104-3.057-3.104h-6.321zM12.75 8.73l-1.193 4.226h-.205L10.16 8.73a1.642 1.642 0 00-1.572-1.208h-2.86v9.194h2.864v-5.433h.204l1.637 5.433h2.045l1.637-5.433h.204v5.433h2.864V7.523h-2.86c-.73 0-1.37.492-1.572 1.208z" fill="#3CA436"/></svg>
