<svg width="24" height="25" viewBox="0 0 24 25" fill="none" xmlns="http://www.w3.org/2000/svg">
<path fill-rule="evenodd" clip-rule="evenodd" d="M0 12.3326C0 5.70516 5.37259 0.332581 12 0.332581C18.6274 0.332581 24 5.70516 24 12.3326C24 18.96 18.6274 24.3326 12 24.3326C5.37259 24.3326 0 18.96 0 12.3326ZM10.5368 9.51009C10.2021 9.17538 10.2021 8.63264 10.5368 8.29792C10.8715 7.96321 11.4142 7.96321 11.7489 8.29792L15.1775 11.7265C15.5122 12.0612 15.5122 12.604 15.1775 12.9387L11.7489 16.3672C11.4142 16.702 10.8715 16.702 10.5368 16.3672C10.2021 16.0325 10.2021 15.4898 10.5368 15.1551L13.3593 12.3326L10.5368 9.51009Z" fill="#919399"/>
</svg>
