<svg width="19" height="18" viewBox="0 0 19 18" fill="none" xmlns="http://www.w3.org/2000/svg">
<path d="M10.9637 12.0237C9.61579 13.1005 7.90676 13.6204 6.18757 13.4765C4.46837 13.3326 2.86952 12.5359 1.71938 11.25C0.56923 9.96417 -0.0449031 8.2867 0.00310491 6.56217C0.0511129 4.83763 0.757617 3.19693 1.97752 1.97703C3.19742 0.757129 4.83812 0.0506246 6.56266 0.00261663C8.28719 -0.0453914 9.96465 0.568741 11.2505 1.71889C12.5364 2.86903 13.3331 4.46789 13.477 6.18708C13.6209 7.90627 13.101 9.6153 12.0242 10.9632L17.7812 16.7187C17.922 16.8595 18.0011 17.0505 18.0011 17.2497C18.0011 17.4488 17.922 17.6398 17.7812 17.7807C17.6403 17.9215 17.4493 18.0006 17.2502 18.0006C17.051 18.0006 16.86 17.9215 16.7192 17.7807L10.9652 12.0237H10.9637ZM12.0002 6.74968C12.0002 6.06024 11.8644 5.37755 11.6005 4.74059C11.3367 4.10363 10.95 3.52487 10.4625 3.03737C9.97497 2.54986 9.39621 2.16315 8.75925 1.89931C8.1223 1.63547 7.43961 1.49968 6.75017 1.49968C6.06073 1.49968 5.37804 1.63547 4.74108 1.89931C4.10412 2.16315 3.52536 2.54986 3.03786 3.03737C2.55035 3.52487 2.16364 4.10363 1.8998 4.74059C1.63596 5.37755 1.50017 6.06024 1.50017 6.74968C1.50017 8.14207 2.05329 9.47742 3.03786 10.462C4.02242 11.4466 5.35778 11.9997 6.75017 11.9997C8.14255 11.9997 9.47791 11.4466 10.4625 10.462C11.447 9.47742 12.0002 8.14207 12.0002 6.74968Z" fill="#919399"/>
</svg>
