<svg xmlns="http://www.w3.org/2000/svg"><path fill-rule="evenodd" clip-rule="evenodd" d="M17.264 10.002c.013-1.778 1.623-3.02 3.91-3.02.891 0 1.607.199 2.165.405l-.407 1.938c-1.036-.487-1.95-.453-2.281-.41-.67.09-.974.438-.982.766-.022 1.077 3.252 1.21 3.242 3.621-.008 1.9-1.597 3.127-4.028 3.127-1.035-.011-2.033-.232-2.574-.486l.42-2.002c.537.256 1.213.596 2.376.577.666-.01 1.378-.28 1.385-.894.003-.4-.299-.688-1.2-1.135-.877-.438-2.041-1.17-2.026-2.487zm9.984-2.853h1.975l1.868 9.137h-2.14l-.28-1.365h-2.968l-.483 1.365h-2.43l3.473-8.467c.166-.406.54-.67.985-.67zm.339 2.469l-1.218 3.43h1.919l-.701-3.43zM14.32 7.149h2.313l-1.913 9.137h-2.314l1.914-9.137zm-3.424 0h2.43l-3.748 9.137H7.132L5.287 8.994c-.112-.449-.209-.613-.55-.802-.556-.309-1.474-.598-2.282-.778l.054-.265h3.938c.501 0 .953.341 1.067.931l.974 5.288 2.409-6.219z" fill="#223084"/></svg>
